<?xml version="1.0" ?><!DOCTYPE svg  PUBLIC '-//W3C//DTD SVG 1.1//EN'  'http://www.w3.org/Graphics/SVG/1.1/DTD/svg11.dtd'><svg height="512px" style="enable-background:new 0 0 512 512;" version="1.1" viewBox="0 0 512 512" width="512px" xml:space="preserve" xmlns="http://www.w3.org/2000/svg" xmlns:xlink="http://www.w3.org/1999/xlink"><g id="world_x2C__eco_x2C__leaves"><g><path d="M187.782,186.107h63.159v63.292h-69.799    C181.142,226.108,181.142,206.053,187.782,186.107L187.782,186.107z" style="fill-rule:evenodd;clip-rule:evenodd;fill:#43B3E6;"/><path d="M187.782,329.202h44.334    c2.943-25.253,8.832-47.255,18.324-66.507h-69.299C181.142,285.998,181.142,309.259,187.782,329.202L187.782,329.202z" style="fill-rule:evenodd;clip-rule:evenodd;fill:#43B3E6;"/><path d="M250.941,169.457V86.241    c-26.563,6.642-49.876,39.979-59.875,83.216H250.941z" style="fill-rule:evenodd;clip-rule:evenodd;fill:#43B3E6;"/><path d="M424.03,249.399h0.08c0-23.291-3.427-43.347-13.3-63.292    h-6.165C414.303,208.228,420.587,229.381,424.03,249.399L424.03,249.399z" style="fill-rule:evenodd;clip-rule:evenodd;fill:#43B3E6;"/><path d="M337.505,169.457h38.509l5.683-1.802l5.382-1.653l7.921,3.455    h9.151c-23.409-36.578-59.969-66.512-106.646-76.574C314.234,109.629,327.518,136.231,337.505,169.457L337.505,169.457z" style="fill-rule:evenodd;clip-rule:evenodd;fill:#43B3E6;"/><path d="M250.941,425.759v-4.584    c-6.086-5.458-11.687-12.014-16.639-19.859l-3.964-6.278l-0.225-3.049l-0.17-7.654c-0.342-14.806-0.043-28.706,0.917-41.785    h-39.794C201.064,389.217,224.378,419.128,250.941,425.759L250.941,425.759z" style="fill-rule:evenodd;clip-rule:evenodd;fill:#43B3E6;"/><path d="M324.228,169.457c-13.309-43.236-36.557-76.574-59.95-83.216    v83.216H324.228z" style="fill-rule:evenodd;clip-rule:evenodd;fill:#43B3E6;"/><path d="M87.89,262.695c0,23.303,6.668,46.563,13.304,66.507h69.954    c-3.448-19.943-6.641-43.204-6.641-66.507H87.89z" style="fill-rule:evenodd;clip-rule:evenodd;fill:#43B3E6;"/><path d="    M174.335,342.549h-63.165c20.094,36.701,59.977,66.612,103.192,79.904C197.771,402.521,184.435,375.913,174.335,342.549    L174.335,342.549z" style="fill-rule:evenodd;clip-rule:evenodd;fill:#43B3E6;stroke:#43B3E6;stroke-width:0.2268;stroke-miterlimit:10;"/><path d="M174.335,169.457c10.099-33.226,23.435-59.828,40.028-76.574    c-43.216,10.063-83.099,39.996-103.192,76.574H174.335z" style="fill-rule:evenodd;clip-rule:evenodd;fill:#43B3E6;"/><path d="M327.518,186.107h-63.24v53.918    c15.217-20.516,36.051-37.325,63.697-51.264L327.518,186.107L327.518,186.107z" style="fill-rule:evenodd;clip-rule:evenodd;fill:#43B3E6;"/><path d="M101.193,186.107c-6.636,19.946-13.304,40.001-13.304,63.292    h76.617c0-23.291,3.192-43.347,6.641-63.292H101.193z" style="fill-rule:evenodd;clip-rule:evenodd;fill:#43B3E6;"/><path d="M244.689,388.184c12.798,20.273,95.39,60.045,141.744-5.203    c27.438-38.62,43.816-116.831,3.172-201.633C269.4,218.354,241.924,272.896,244.689,388.184L244.689,388.184z" style="fill-rule:evenodd;clip-rule:evenodd;fill:#7AC143;"/><path d="M245.398,389.228c1.854,2.58,4.75,5.404,8.475,8.272    c39.132-21.587,93.316-65.004,130.533-149.672C384.406,247.828,328.509,340.576,245.398,389.228L245.398,389.228z" style="fill-rule:evenodd;clip-rule:evenodd;fill:#3F8640;"/><path d="M286.167,308.395c-0.059,0.129-18.725,55.366-20.532,73.01    l12.152-6.057C279.489,358.74,286.108,308.511,286.167,308.395L286.167,308.395z" style="fill-rule:evenodd;clip-rule:evenodd;fill:#3F8640;"/><path d="M328.769,290.369c-0.048,0.095-17.226,38.076-19.753,50.495    l9.065-3.443C320.465,325.716,328.721,290.464,328.769,290.369L328.769,290.369z" style="fill-rule:evenodd;clip-rule:evenodd;fill:#3F8640;"/><path d="M366.233,337.251c-0.14,0.011-55.884,9.571-71.769,16.171    l10.768,7.567C320.198,354.764,366.1,337.262,366.233,337.251L366.233,337.251z" style="fill-rule:evenodd;clip-rule:evenodd;fill:#3F8640;"/><path d="M353.484,270.509c-0.022,0.064-7.942,28.517-8.368,37.491    l5.975-3.4C351.496,296.146,353.462,270.573,353.484,270.509L353.484,270.509z" style="fill-rule:evenodd;clip-rule:evenodd;fill:#3F8640;"/><path d="M387.19,298.673c-0.098,0-38.189,6.535-49.042,11.045    l7.355,5.179C355.734,310.644,387.1,298.673,387.19,298.673L387.19,298.673z" style="fill-rule:evenodd;clip-rule:evenodd;fill:#3F8640;"/></g></g><g id="Layer_1"/></svg>